<svg width="200" height="200" viewBox="0 0 200 200" fill="none" xmlns="http://www.w3.org/2000/svg">
<path opacity="0.3" d="M100 200C155.228 200 200 155.228 200 100C200 44.7715 155.228 0 100 0C44.7715 0 0 44.7715 0 100C0 155.228 44.7715 200 100 200Z" fill="#D0DADD"/>
<g clip-path="url(#clip0)">
<path d="M74.3045 35.9237C74.6516 33.2153 76.7519 30.9554 79.5811 30.5313C82.3514 30.1176 84.9654 31.5882 86.1284 33.9837C86.9963 32.1758 88.7112 30.8164 90.8427 30.4965C93.3422 30.121 95.7167 31.2857 97.0116 33.2744C97.6469 32.9198 98.3585 32.6729 99.1222 32.5582C101.396 32.2175 103.569 33.1493 104.916 34.8215C105.267 34.6999 105.635 34.6095 106.017 34.5538C109.429 34.0428 112.613 36.4 113.123 39.8211C113.241 40.6033 113.206 41.3751 113.043 42.1052C113.644 41.7889 114.307 41.5698 115.015 41.4621C118.427 40.951 121.611 43.3082 122.121 46.7293C122.236 47.4976 122.204 48.2521 122.052 48.9683C124.055 49.7644 125.592 51.5758 125.933 53.8635C125.964 54.0651 125.985 54.2668 125.995 54.4684C128.227 55.1533 129.984 57.0655 130.352 59.5305C130.654 61.5574 129.949 63.5044 128.616 64.8568C129.651 65.7955 130.383 67.0819 130.605 68.5734C130.956 70.9237 129.953 73.1661 128.179 74.5047C128.432 77.7241 127.408 79.379 126.013 81.6319C125.419 82.595 124.752 83.6658 124.093 85.0148C122.253 95.0346 115.716 104.797 106.333 111.09C124.78 111.156 139.711 126.151 139.711 144.64C139.711 144.64 139.885 189.312 139.711 189.486C139.537 189.66 129.123 196.523 106.037 196.523C82.952 196.523 70.4441 194.089 70.4441 194.089V179.957C68.4341 182.422 66.3339 184.049 64.2614 184.435C54.6176 186.218 40.7246 176.88 37.1316 128.929C37.1316 128.929 37.812 129.162 39.3048 129.006C39.0305 128.54 38.7667 128.081 38.5167 127.639C37.5725 125.988 36.7671 124.583 36.0763 124.037C35.8194 123.832 35.5416 123.613 35.2361 123.38C33.6462 122.17 33.2956 121.343 32.4971 119.465C32.3513 119.121 32.1916 118.746 32.0042 118.322C31.9833 118.273 31.9625 118.224 31.9417 118.176V118.172C31.6674 117.505 31.5112 116.844 31.4418 116.215L28.0328 111.973C27.3281 111.097 27.4669 109.814 28.3417 109.108C29.2166 108.403 30.4975 108.542 31.2023 109.418L32.754 111.347C32.8616 111.316 32.9866 111.267 33.1255 111.208L31.0322 106.97C30.4663 105.826 30.935 104.443 32.0771 103.876C33.1498 103.344 34.4377 103.726 35.0556 104.724L34.7397 103.938C34.278 102.795 34.8335 101.491 35.9791 101.028C37.1212 100.566 38.423 101.122 38.8847 102.27L40.7211 106.842C40.9225 106.727 41.1238 106.616 41.3217 106.504C41.2696 106.403 41.221 106.299 41.1828 106.188L38.5757 98.7791C38.1418 97.5483 37.3295 96.4879 36.2533 95.7543L33.2539 93.7065C32.2229 93.0042 31.9278 91.6101 32.5874 90.5497C33.2956 89.4128 34.8126 89.1034 35.9061 89.8787L40.2455 92.9521C41.5335 93.863 42.4951 95.1702 42.9845 96.6722L45.5535 104.547C46.1887 104.366 46.6991 104.321 47.0323 104.463C49.3964 105.475 50.9447 107.012 51.2988 109.543C51.4654 110.728 50.9864 112.484 50.4726 114.351C50.2678 115.099 50.0595 115.86 49.8859 116.611C49.6741 117.522 49.7193 118.304 49.7609 119.013C49.7609 119.013 52.1528 119.013 53.6143 124.041C55.0758 129.068 57.1413 135.49 59.6547 141.782C62.0605 129.781 68.3612 120.797 74.4329 115.523C66.2228 110.864 62.4562 100.211 60.9322 87.5458C59.7346 77.5955 58.523 67.5165 62.5604 59.7808C59.922 59.3775 57.7384 57.2985 57.3219 54.5171C56.999 52.3581 57.8183 50.2964 59.3214 48.937C59.2173 48.6102 59.1375 48.2729 59.0854 47.9253C58.5751 44.5042 60.9287 41.3195 64.3447 40.8084C64.9175 40.7215 65.4799 40.718 66.0284 40.7841C66.4693 38.187 68.5279 36.0523 71.2669 35.6421C72.3326 35.4717 73.3672 35.5864 74.3045 35.9237Z" fill="#171717"/>
<mask id="mask0" mask-type="alpha" maskUnits="userSpaceOnUse" x="23" y="26" width="121" height="175">
<path d="M143.533 26.6026H23.7663V200.09H143.533V26.6026Z" fill="white"/>
<path d="M74.3045 35.9237C74.6516 33.2153 76.7519 30.9554 79.5811 30.5313C82.3514 30.1176 84.9654 31.5882 86.1284 33.9837C86.9963 32.1758 88.7112 30.8164 90.8427 30.4965C93.3422 30.121 95.7167 31.2857 97.0116 33.2744C97.6469 32.9198 98.3585 32.6729 99.1222 32.5582C101.396 32.2175 103.569 33.1493 104.916 34.8215C105.267 34.6999 105.635 34.6095 106.017 34.5538C109.429 34.0428 112.613 36.4 113.123 39.8211C113.241 40.6033 113.206 41.3751 113.043 42.1052C113.644 41.7889 114.307 41.5698 115.015 41.4621C118.427 40.951 121.611 43.3082 122.121 46.7293C122.236 47.4976 122.204 48.2521 122.052 48.9683C124.055 49.7644 125.592 51.5758 125.933 53.8635C125.964 54.0651 125.985 54.2668 125.995 54.4684C128.227 55.1533 129.984 57.0655 130.352 59.5305C130.654 61.5574 129.949 63.5044 128.616 64.8568C129.651 65.7955 130.383 67.0819 130.605 68.5734C130.956 70.9237 129.953 73.1661 128.179 74.5047C128.432 77.7241 127.408 79.379 126.013 81.6319C125.419 82.595 124.752 83.6658 124.093 85.0148C122.253 95.0346 115.716 104.797 106.333 111.09C124.78 111.156 139.711 126.151 139.711 144.64C139.711 144.64 139.885 189.312 139.711 189.486C139.537 189.66 129.123 196.523 106.037 196.523C82.952 196.523 70.4441 194.089 70.4441 194.089V179.957C68.4341 182.422 66.3339 184.049 64.2614 184.435C54.6176 186.218 40.7246 176.88 37.1316 128.929C37.1316 128.929 37.812 129.162 39.3048 129.006C39.0305 128.54 38.7667 128.081 38.5167 127.639C37.5725 125.988 36.7671 124.583 36.0763 124.037C35.8194 123.832 35.5416 123.613 35.2361 123.38C33.6462 122.17 33.2956 121.343 32.4971 119.465C32.3513 119.121 32.1916 118.746 32.0042 118.322C31.9833 118.273 31.9625 118.224 31.9417 118.176V118.172C31.6674 117.505 31.5112 116.844 31.4418 116.215L28.0328 111.973C27.3281 111.097 27.4669 109.814 28.3417 109.108C29.2166 108.403 30.4975 108.542 31.2023 109.418L32.754 111.347C32.8616 111.316 32.9866 111.267 33.1255 111.208L31.0322 106.97C30.4663 105.826 30.935 104.443 32.0771 103.876C33.1498 103.344 34.4377 103.726 35.0556 104.724L34.7397 103.938C34.278 102.795 34.8335 101.491 35.9791 101.028C37.1212 100.566 38.423 101.122 38.8847 102.27L40.7211 106.842C40.9225 106.727 41.1238 106.616 41.3217 106.504C41.2696 106.403 41.221 106.299 41.1828 106.188L38.5757 98.7791C38.1418 97.5483 37.3295 96.4879 36.2533 95.7543L33.2539 93.7065C32.2229 93.0042 31.9278 91.6101 32.5874 90.5497C33.2956 89.4128 34.8126 89.1034 35.9061 89.8787L40.2455 92.9521C41.5335 93.863 42.4951 95.1702 42.9845 96.6722L45.5535 104.547C46.1887 104.366 46.6991 104.321 47.0323 104.463C49.3964 105.475 50.9447 107.012 51.2988 109.543C51.4654 110.728 50.9864 112.484 50.4726 114.351C50.2678 115.099 50.0595 115.86 49.8859 116.611C49.6741 117.522 49.7193 118.304 49.7609 119.013C49.7609 119.013 52.1528 119.013 53.6143 124.041C55.0758 129.068 57.1413 135.49 59.6547 141.782C62.0605 129.781 68.3612 120.797 74.4329 115.523C66.2228 110.864 62.4562 100.211 60.9322 87.5458C59.7346 77.5955 58.523 67.5165 62.5604 59.7808C59.922 59.3775 57.7384 57.2985 57.3219 54.5171C56.999 52.3581 57.8183 50.2964 59.3214 48.937C59.2173 48.6102 59.1375 48.2729 59.0854 47.9253C58.5751 44.5042 60.9287 41.3195 64.3447 40.8084C64.9175 40.7215 65.4799 40.718 66.0284 40.7841C66.4693 38.187 68.5279 36.0523 71.2669 35.6421C72.3326 35.4717 73.3672 35.5864 74.3045 35.9237Z" fill="black"/>
</mask>
<g mask="url(#mask0)">
<path d="M79.5812 30.5312L80.095 33.9697L79.5812 30.5312ZM74.3045 35.9236L73.1311 39.1952L77.1997 40.6554L77.7482 36.3651L74.3045 35.9236ZM86.1284 33.9836L83.0041 35.5029L86.1458 41.98L89.2563 35.489L86.1284 33.9836ZM90.8427 30.4965L91.3565 33.9349L90.8427 30.4965ZM97.0116 33.2778L94.1025 35.1726L95.866 37.8879L98.6953 36.313L97.0116 33.2778ZM99.1223 32.5616L99.6361 36.0001L99.1223 32.5616ZM104.913 34.8215L102.212 37.0049L103.736 38.8962L106.034 38.1104L104.913 34.8215ZM106.013 34.5573L105.499 31.1188L106.013 34.5573ZM113.119 39.821L109.686 40.3355L113.119 39.821ZM113.043 42.1052L109.655 41.3507L108.03 48.6518L114.65 45.1855L113.043 42.1052ZM115.015 41.4655L115.529 44.9039L115.015 41.4655ZM122.121 46.7292L118.688 47.2438L122.121 46.7292ZM122.052 48.9682L118.656 48.2381L118.042 51.1133L120.771 52.1981L122.052 48.9682ZM125.936 53.8669L129.369 53.3523L125.936 53.8669ZM125.995 54.4684L122.527 54.6491L122.656 57.0794L124.978 57.7921L125.995 54.4684ZM130.352 59.5339L126.919 60.0485L130.352 59.5339ZM128.616 64.8602L126.144 62.4161L123.596 65.0028L126.287 67.44L128.616 64.8602ZM130.605 68.5768L127.172 69.0914L130.605 68.5768ZM128.179 74.5081L126.089 71.7302L124.568 72.8775L124.718 74.7793L128.179 74.5081ZM126.013 81.6353L123.062 79.8031L126.013 81.6353ZM124.096 85.0182L120.979 83.4884L120.767 83.9195L120.68 84.3889L124.096 85.0182ZM106.333 111.09L104.402 108.201L94.9669 114.528L106.322 114.567L106.333 111.09ZM139.715 144.64H136.243V144.647V144.654L139.715 144.64ZM106.041 196.523V200V196.523ZM70.4476 194.089H66.9761V196.954L69.7846 197.5L70.4476 194.089ZM70.4476 179.957H73.9192V170.194L67.7572 177.759L70.4476 179.957ZM64.2649 184.431L64.8967 187.849L64.2649 184.431ZM37.1351 128.926L38.2599 125.637L33.2782 123.929L33.6705 129.186L37.1351 128.926ZM39.3082 129.002L39.6693 132.461L45.0397 131.898L42.3007 127.239L39.3082 129.002ZM38.5202 127.636L41.53 125.904L38.5202 127.636ZM36.0797 124.034L38.2356 121.308L36.0797 124.034ZM35.2396 123.377L33.1394 126.141L35.2396 123.377ZM32.5041 119.458L29.3068 120.814V120.818V120.821L32.5041 119.458ZM32.5041 119.458L35.7014 118.103V118.099V118.096L32.5041 119.458ZM32.0111 118.315L28.8347 119.719L32.0111 118.315ZM31.9487 118.169L35.1563 116.837L35.1043 116.712L35.0418 116.59L31.9487 118.169ZM31.9452 118.165L28.5674 118.968L28.6646 119.375L28.8521 119.747L31.9452 118.165ZM31.9452 118.165L35.323 117.362L35.2605 117.091L35.1529 116.834L31.9452 118.165ZM31.4453 116.208L34.896 115.825L34.7849 114.817L34.1496 114.028L31.4453 116.208ZM28.0363 111.966L30.7406 109.786L28.0363 111.966ZM28.3452 109.098L26.1686 106.39L28.3452 109.098ZM31.2058 109.407L28.5015 111.587L31.2058 109.407ZM32.7575 111.337L30.0532 113.52L31.5182 115.345L33.7573 114.671L32.7575 111.337ZM33.129 111.198L34.4898 114.396L37.8676 112.954L36.2394 109.658L33.129 111.198ZM31.0357 106.963L27.9252 108.507L31.0357 106.963ZM32.0771 103.869L33.6185 106.984L32.0771 103.869ZM35.0591 104.717L32.1118 106.553L53.17 140.486L38.2772 103.417L35.0591 104.717ZM34.7432 103.928L37.9648 102.631L34.7432 103.928ZM38.8847 102.259L35.6632 103.556L38.8847 102.259ZM40.7211 106.831L37.4996 108.128L38.9819 111.817L42.4361 109.852L40.7211 106.831ZM41.3217 106.494L43.0054 109.532L45.977 107.881L44.3905 104.87L41.3217 106.494ZM41.1829 106.177L44.4565 105.023L41.1829 106.177ZM38.5792 98.7686L41.8529 97.6143L38.5792 98.7686ZM36.2533 95.7438L38.2078 92.8721L36.2533 95.7438ZM33.2539 93.696L31.2995 96.5678L33.2539 93.696ZM32.5874 90.5392L35.5347 92.3749L32.5874 90.5392ZM35.9062 89.8682L37.9092 87.0312L35.9062 89.8682ZM40.249 92.9416L38.246 95.7821L40.249 92.9416ZM42.988 96.6617L39.6866 97.7395L42.988 96.6617ZM45.557 104.536L42.2556 105.618L43.2935 108.795L46.5047 107.881L45.557 104.536ZM47.0358 104.456L48.4001 101.261L47.0358 104.456ZM51.3058 109.536L54.7426 109.049L51.3058 109.536ZM50.4795 114.344L47.133 113.426L50.4795 114.344ZM49.8929 116.604L46.5116 115.818L49.8929 116.604ZM49.7679 119.006L46.3033 119.208L46.4943 122.483H49.7679V119.006ZM59.6617 141.772L56.4401 143.062L60.7726 153.906L63.0672 142.457L59.6617 141.772ZM74.4399 115.512L76.7137 118.137L80.4248 114.914L76.1513 112.488L74.4399 115.512ZM60.9392 87.5353L64.3864 87.1181L60.9392 87.5353ZM62.5673 59.7703L65.6431 61.3801L67.8961 57.0655L63.0915 56.3319L62.5673 59.7703ZM57.3288 54.5031L53.8955 55.0177L57.3288 54.5031ZM59.3319 48.923L61.6543 51.5062L63.3276 49.9973L62.6333 47.8522L59.3319 48.923ZM59.0924 47.9113L62.5257 47.3967L59.0924 47.9113ZM64.3517 40.7945L64.8655 44.2329L64.3517 40.7945ZM66.0354 40.7701L65.6153 44.2225L68.9028 44.6223L69.4583 41.3542L66.0354 40.7701ZM71.2739 35.6281L70.7601 32.1896L71.2739 35.6281ZM79.0709 27.0928C74.6655 27.7533 71.4023 31.2718 70.8642 35.4821L77.7517 36.3651C77.9044 35.1587 78.8452 34.1574 80.0984 33.9697L79.0709 27.0928ZM89.2528 32.4643C87.4476 28.7407 83.3825 26.4461 79.0709 27.0928L80.0984 33.9697C81.3239 33.7854 82.4903 34.4356 83.011 35.5029L89.2528 32.4643ZM90.3324 27.058C87.0171 27.5552 84.3441 29.676 83.0006 32.4817L89.2597 35.489C89.6485 34.6755 90.4123 34.0775 91.3565 33.9349L90.3324 27.058ZM99.9207 31.3795C97.9142 28.2888 94.224 26.4739 90.3324 27.058L91.36 33.9349C92.4674 33.768 93.5227 34.2791 94.1025 35.1726L99.9207 31.3795ZM98.6085 29.1232C97.4282 29.3005 96.3208 29.6864 95.3279 30.2392L98.6988 36.3199C98.9765 36.1635 99.2924 36.0557 99.6361 36.0036L98.6085 29.1232ZM107.614 32.6381C105.524 30.048 102.149 28.5912 98.6085 29.1197L99.6361 35.9966C100.643 35.8471 101.608 36.2539 102.215 37.0049L107.614 32.6381ZM105.499 31.1188C104.913 31.2057 104.34 31.3483 103.791 31.536L106.034 38.1174C106.19 38.0653 106.353 38.0235 106.527 37.9992L105.499 31.1188ZM116.553 39.3064C115.761 33.9906 110.811 30.3226 105.499 31.1188L106.527 37.9957C108.044 37.7697 109.46 38.8162 109.686 40.3355L116.553 39.3064ZM116.431 42.8631C116.685 41.7227 116.737 40.5198 116.556 39.3099L109.686 40.3355C109.738 40.6902 109.724 41.0309 109.651 41.3507L116.431 42.8631ZM114.501 38.027C113.404 38.1904 112.373 38.5346 111.432 39.0283L114.65 45.189C114.914 45.05 115.206 44.9526 115.529 44.9039L114.501 38.027ZM125.554 46.2147C124.759 40.8953 119.812 37.2308 114.501 38.0235L115.529 44.9005C117.046 44.6745 118.462 45.721 118.688 47.2403L125.554 46.2147ZM125.447 49.6983C125.686 48.5788 125.731 47.4037 125.554 46.2147L118.688 47.2438C118.74 47.5914 118.726 47.9252 118.66 48.2381L125.447 49.6983ZM129.369 53.3523C128.838 49.7887 126.44 46.9726 123.336 45.7383L120.774 52.2015C121.673 52.5596 122.35 53.3662 122.503 54.3814L129.369 53.3523ZM129.463 54.2876C129.446 53.9747 129.415 53.6652 129.369 53.3523L122.503 54.3814C122.517 54.4753 122.527 54.5657 122.531 54.6561L129.463 54.2876ZM133.785 59.0194C133.212 55.1776 130.473 52.205 127.009 51.1446L124.978 57.7956C125.978 58.1015 126.755 58.9568 126.919 60.0485L133.785 59.0194ZM131.084 67.3044C133.153 65.2044 134.254 62.1762 133.785 59.0194L126.919 60.0485C127.054 60.9489 126.745 61.8112 126.144 62.4196L131.084 67.3044ZM134.039 68.0623C133.695 65.7468 132.556 63.7373 130.946 62.2805L126.29 67.44C126.752 67.8572 127.075 68.4239 127.172 69.0914L134.039 68.0623ZM130.269 77.286C133.018 75.2139 134.584 71.7267 134.039 68.0658L127.172 69.0949C127.328 70.1379 126.887 71.1322 126.092 71.7337L130.269 77.286ZM128.963 83.4676C129.623 82.4002 130.432 81.1173 130.977 79.6223C131.557 78.023 131.803 76.3021 131.64 74.2334L124.718 74.7793C124.808 75.9301 124.669 76.6497 124.45 77.2443C124.197 77.9431 123.798 78.6141 123.062 79.7996L128.963 83.4676ZM127.214 86.5479C127.79 85.3728 128.37 84.4306 128.967 83.4676L123.065 79.8031C122.472 80.7627 121.725 81.9656 120.979 83.4884L127.214 86.5479ZM108.266 113.983C118.365 107.213 125.488 96.6617 127.512 85.6475L120.684 84.3889C119.028 93.411 113.074 102.391 104.406 108.201L108.266 113.983ZM143.186 144.64C143.186 124.235 126.707 107.686 106.346 107.613L106.322 114.567C122.857 114.626 136.243 128.067 136.243 144.64H143.186ZM142.169 191.944C142.801 191.312 143.002 190.599 143.013 190.568C143.078 190.369 143.11 190.209 143.124 190.136C143.155 189.983 143.169 189.858 143.172 189.81C143.186 189.695 143.19 189.587 143.193 189.525C143.2 189.385 143.207 189.215 143.21 189.038C143.221 188.673 143.228 188.165 143.231 187.543C143.242 186.291 143.252 184.522 143.256 182.411C143.262 178.19 143.259 172.586 143.249 166.992C143.238 161.394 143.221 155.804 143.207 151.611C143.2 149.515 143.193 147.769 143.19 146.545C143.186 145.934 143.186 145.454 143.183 145.127C143.183 144.964 143.183 144.838 143.183 144.751C143.183 144.71 143.183 144.678 143.183 144.654C143.183 144.644 143.183 144.637 143.183 144.63C143.183 144.626 143.183 144.626 143.183 144.623C143.183 144.623 143.183 144.623 143.183 144.619C143.183 144.616 143.183 144.619 139.711 144.633C136.24 144.647 136.24 144.647 136.24 144.647C136.24 144.647 136.24 144.647 136.24 144.651C136.24 144.651 136.24 144.654 136.24 144.658C136.24 144.665 136.24 144.672 136.24 144.682C136.24 144.703 136.24 144.734 136.24 144.779C136.24 144.863 136.24 144.988 136.24 145.151C136.24 145.478 136.243 145.958 136.247 146.57C136.25 147.79 136.257 149.535 136.264 151.632C136.278 155.821 136.295 161.408 136.306 167.002C136.316 172.596 136.323 178.19 136.312 182.397C136.309 184.501 136.302 186.249 136.288 187.473C136.281 188.089 136.274 188.555 136.267 188.867C136.264 189.027 136.26 189.118 136.257 189.156C136.257 189.184 136.257 189.146 136.264 189.079C136.267 189.055 136.278 188.947 136.306 188.808C136.319 188.746 136.351 188.589 136.413 188.395C136.424 188.367 136.625 187.658 137.253 187.028L142.169 191.944ZM106.041 200C117.934 200 126.658 198.23 132.511 196.388C135.434 195.466 137.635 194.528 139.152 193.783C139.909 193.411 140.499 193.088 140.926 192.838C141.138 192.713 141.315 192.601 141.461 192.508C141.53 192.462 141.603 192.414 141.676 192.362C141.711 192.337 141.759 192.302 141.815 192.261C141.825 192.254 141.992 192.129 142.172 191.948L137.264 187.032C137.375 186.924 137.465 186.844 137.496 186.82C137.538 186.785 137.573 186.757 137.59 186.743C137.628 186.712 137.656 186.694 137.666 186.688C137.687 186.674 137.687 186.674 137.666 186.688C137.628 186.712 137.541 186.768 137.406 186.847C137.139 187.004 136.705 187.244 136.101 187.543C134.893 188.134 133.015 188.944 130.428 189.761C125.259 191.392 117.237 193.053 106.041 193.053V200ZM70.4476 194.089C69.7846 197.504 69.7881 197.504 69.7881 197.504C69.7881 197.504 69.7881 197.504 69.7915 197.504H69.795C69.7985 197.504 69.8019 197.504 69.8054 197.507C69.8158 197.511 69.8262 197.511 69.8436 197.514C69.8748 197.521 69.9165 197.528 69.972 197.538C70.0831 197.559 70.2394 197.587 70.4476 197.622C70.8608 197.691 71.4648 197.792 72.2563 197.91C73.8428 198.147 76.1791 198.456 79.241 198.766C85.3647 199.384 94.3802 200 106.044 200V193.046C94.6232 193.046 85.8403 192.445 79.9387 191.847C76.988 191.548 74.7558 191.252 73.2734 191.03C72.534 190.919 71.9786 190.828 71.6175 190.766C71.437 190.734 71.3051 190.71 71.2183 190.696C71.1767 190.689 71.1454 190.682 71.1281 190.679C71.1176 190.675 71.1142 190.675 71.1107 190.675C71.1072 190.675 71.1072 190.675 71.1072 190.675C71.1072 190.675 71.1107 190.675 70.4476 194.089ZM66.9761 179.957V194.089H73.9192V179.957H66.9761ZM64.8967 187.852C68.1946 187.24 70.9614 184.827 73.1381 182.154L67.7572 177.759C65.9173 180.019 64.4801 180.857 63.6366 181.014L64.8967 187.852ZM33.674 129.186C35.4861 153.37 39.9192 168.369 45.5014 177.193C51.212 186.222 58.3876 189.059 64.9002 187.852L63.64 181.014C60.5087 181.594 55.9125 180.652 51.3683 173.469C46.6921 166.078 42.384 152.435 40.6031 128.665L33.674 129.186ZM38.9472 125.543C38.4334 125.595 38.1383 125.574 38.0342 125.564C37.9821 125.557 37.9787 125.557 38.0168 125.564C38.0377 125.567 38.0654 125.574 38.1071 125.588C38.1279 125.595 38.1488 125.602 38.1765 125.609C38.1904 125.612 38.2008 125.616 38.2147 125.623C38.2217 125.626 38.2286 125.626 38.2356 125.63C38.239 125.63 38.2425 125.633 38.246 125.633C38.2494 125.633 38.2494 125.633 38.2529 125.637H38.2564C38.2564 125.637 38.2599 125.637 37.1351 128.926C36.0103 132.214 36.0103 132.214 36.0138 132.214H36.0173C36.0207 132.214 36.0207 132.214 36.0242 132.218C36.0277 132.218 36.0311 132.221 36.0346 132.221C36.0416 132.225 36.052 132.225 36.0589 132.228C36.0763 132.235 36.0936 132.239 36.111 132.246C36.1457 132.256 36.1839 132.27 36.2256 132.281C36.3089 132.305 36.4026 132.329 36.5102 132.354C36.722 132.402 36.9823 132.447 37.2878 132.479C37.8988 132.545 38.6903 132.562 39.6693 132.458L38.9472 125.543ZM35.507 129.364C35.7569 129.802 36.0311 130.278 36.3158 130.765L42.2972 127.236C42.0334 126.791 41.78 126.349 41.5265 125.904L35.507 129.364ZM33.9239 126.756C33.8129 126.666 33.8059 126.638 33.9066 126.763C33.9968 126.878 34.1218 127.052 34.2919 127.309C34.6356 127.837 35.0209 128.512 35.5104 129.364L41.5335 125.904C41.0752 125.105 40.5858 124.249 40.1171 123.526C39.7005 122.883 39.0652 121.965 38.239 121.308L33.9239 126.756ZM33.1394 126.141C33.4136 126.349 33.6636 126.547 33.9239 126.756L38.2356 121.308C37.9787 121.103 37.6766 120.863 37.3399 120.609L33.1394 126.141ZM29.3103 120.821C29.6748 121.68 30.0845 122.667 30.6711 123.568C31.3273 124.573 32.1188 125.362 33.1394 126.141L37.3434 120.606C36.7775 120.175 36.6005 119.945 36.4824 119.764C36.2985 119.479 36.1318 119.114 35.6979 118.096L29.3103 120.821ZM29.3068 120.814L35.7014 118.103L29.3068 120.814ZM28.8347 119.719C29.0118 120.119 29.1645 120.477 29.3103 120.821L35.6979 118.099C35.5521 117.758 35.382 117.359 35.1876 116.913L28.8347 119.719ZM28.741 119.5C28.7722 119.573 28.8035 119.646 28.8347 119.719L35.1876 116.913C35.1772 116.889 35.1667 116.861 35.1563 116.837L28.741 119.5ZM28.8521 119.744L35.0383 116.59V116.587L28.8521 119.744ZM28.5674 118.965L35.323 117.362V117.359L28.5674 118.965ZM27.9946 116.59C28.0988 117.518 28.3279 118.499 28.7375 119.493L35.1529 116.834C35.014 116.496 34.9342 116.156 34.896 115.822L27.9946 116.59ZM25.332 114.146L28.741 118.388L34.1496 114.028L30.7406 109.786L25.332 114.146ZM26.1651 106.393C23.7976 108.302 23.4226 111.775 25.3285 114.146L30.7371 109.786C31.2335 110.405 31.1363 111.313 30.5184 111.81L26.1651 106.393ZM33.9101 107.227C32.0042 104.856 28.5362 104.481 26.1686 106.39L30.5219 111.806C29.9039 112.303 29.0014 112.206 28.5015 111.587L33.9101 107.227ZM35.4618 109.157L33.9101 107.227L28.5015 111.587L30.0532 113.517L35.4618 109.157ZM31.7647 108.003C31.7508 108.01 31.7369 108.013 31.73 108.017C31.7195 108.02 31.7161 108.024 31.7126 108.024C31.7091 108.024 31.7126 108.024 31.7195 108.02C31.7265 108.017 31.7369 108.013 31.7543 108.01L33.7573 114.668C34.0281 114.584 34.278 114.487 34.4898 114.396L31.7647 108.003ZM27.9217 108.503L30.015 112.741L36.236 109.658L34.1461 105.42L27.9217 108.503ZM30.5392 100.75C27.6787 102.169 26.5088 105.639 27.9252 108.503L34.1496 105.42C34.4343 105.997 34.1982 106.699 33.6219 106.984L30.5392 100.75ZM38.0064 102.882C36.4512 100.378 33.2296 99.4187 30.5392 100.754L33.6185 106.987C33.0734 107.259 32.4243 107.064 32.1083 106.556L38.0064 102.882ZM31.5217 105.228L31.8376 106.014L38.2807 103.417L37.9648 102.631L31.5217 105.228ZM34.6842 97.7951C31.7612 98.9737 30.3448 102.301 31.5217 105.228L37.9613 102.635C38.2182 103.271 37.9092 103.994 37.2739 104.248L34.6842 97.7951ZM42.1063 100.962C40.9294 98.035 37.6072 96.6165 34.6842 97.7951L37.2739 104.248C36.6387 104.505 35.9166 104.196 35.6632 103.559L42.1063 100.962ZM43.9427 105.534L42.1063 100.962L35.6666 103.556L37.5031 108.128L43.9427 105.534ZM39.638 103.452C39.4298 103.57 39.218 103.688 39.0062 103.806L42.4361 109.852C42.627 109.745 42.8179 109.637 43.0089 109.532L39.638 103.452ZM37.9092 107.332C38.0064 107.603 38.1175 107.864 38.2494 108.114L44.3905 104.87C44.4148 104.919 44.4391 104.971 44.4565 105.02L37.9092 107.332ZM35.3056 99.9228L37.9127 107.332L44.46 105.02L41.8529 97.6108L35.3056 99.9228ZM34.3023 98.6191C34.7675 98.9354 35.1181 99.3944 35.3056 99.9263L41.8529 97.6143C41.1724 95.6847 39.8984 94.0229 38.2078 92.8721L34.3023 98.6191ZM31.2995 96.5713L34.2989 98.6191L38.2078 92.8721L35.2084 90.8243L31.2995 96.5713ZM29.6401 88.7035C27.9981 91.3458 28.7306 94.819 31.2995 96.5713L35.2084 90.8243C35.7152 91.172 35.861 91.8569 35.5347 92.3784L29.6401 88.7035ZM37.9127 87.0312C35.1876 85.1016 31.4036 85.8665 29.6436 88.7035L35.5382 92.3784C35.191 92.9381 34.4447 93.0876 33.9066 92.7087L37.9127 87.0312ZM42.2521 90.1011L37.9127 87.0277L33.9031 92.7087L38.2425 95.7821L42.2521 90.1011ZM46.286 95.5804C45.5639 93.3658 44.151 91.4466 42.2521 90.1011L38.2425 95.7821C38.9229 96.2618 39.4263 96.9502 39.6866 97.7429L46.286 95.5804ZM48.8549 103.459L46.286 95.5804L39.6866 97.7395L42.2556 105.618L48.8549 103.459ZM48.4001 101.258C47.5531 100.896 46.7407 100.868 46.1888 100.903C45.6125 100.942 45.0675 101.06 44.6058 101.192L46.5047 107.881C46.6783 107.832 46.706 107.839 46.6262 107.843C46.581 107.846 46.4734 107.85 46.3207 107.829C46.1679 107.811 45.9388 107.763 45.668 107.648L48.4001 101.258ZM54.7426 109.049C54.1698 104.978 51.5279 102.596 48.4001 101.258L45.6715 107.652C47.2719 108.336 47.7266 109.032 47.8655 110.019L54.7426 109.049ZM53.8261 115.262C54.0726 114.358 54.3572 113.329 54.5482 112.362C54.7321 111.445 54.9092 110.238 54.7391 109.046L47.8655 110.019C47.8655 110.012 47.8829 110.276 47.7405 111.003C47.6051 111.678 47.3934 112.46 47.1295 113.423L53.8261 115.262ZM53.2741 117.39C53.4303 116.719 53.6213 116.02 53.8295 115.262L47.133 113.423C46.9317 114.156 46.7026 114.987 46.5116 115.815L53.2741 117.39ZM53.2325 118.805C53.1908 118.089 53.1873 117.762 53.2741 117.39L46.5116 115.815C46.1749 117.268 46.2617 118.506 46.3033 119.205L53.2325 118.805ZM56.9539 123.06C56.0826 120.07 54.8016 118.12 53.3192 116.924C52.5833 116.329 51.8543 115.975 51.212 115.77C50.8961 115.669 50.608 115.61 50.365 115.575C50.2435 115.558 50.1324 115.547 50.0317 115.54C49.9831 115.537 49.9345 115.533 49.8894 115.533C49.8686 115.533 49.8477 115.533 49.8269 115.53C49.8165 115.53 49.8061 115.53 49.7957 115.53C49.7922 115.53 49.7852 115.53 49.7818 115.53C49.7783 115.53 49.7748 115.53 49.7748 115.53C49.7714 115.53 49.7679 115.53 49.7679 119.006C49.7679 122.483 49.7644 122.483 49.7609 122.483C49.7609 122.483 49.7575 122.483 49.754 122.483C49.7505 122.483 49.7436 122.483 49.7401 122.483C49.7297 122.483 49.7228 122.483 49.7123 122.483C49.695 122.483 49.6776 122.483 49.6603 122.483C49.6256 122.483 49.5908 122.48 49.5596 122.48C49.4936 122.476 49.4346 122.469 49.3826 122.462C49.2749 122.445 49.1847 122.424 49.1152 122.403C48.9694 122.355 48.9278 122.313 48.9729 122.348C49.0528 122.41 49.6985 122.973 50.2921 125.007L56.9539 123.06ZM62.8867 140.482C60.4254 134.325 58.398 128.018 56.9539 123.06L50.2886 125.007C51.7709 130.104 53.8712 136.64 56.4401 143.065L62.8867 140.482ZM72.166 112.887C65.5632 118.624 58.8285 128.275 56.2596 141.091L63.0672 142.46C65.3098 131.272 71.1801 122.953 76.7172 118.141L72.166 112.887ZM57.492 87.9525C59.0299 100.719 62.9353 112.978 72.7284 118.537L76.1513 112.488C69.5242 108.726 65.8965 99.6864 64.3864 87.1216L57.492 87.9525ZM59.4916 58.1571C57.1205 62.6977 56.3742 67.7668 56.3186 72.7836C56.2631 77.7832 56.9018 83.026 57.492 87.9525L64.3864 87.1216C63.7824 82.0978 63.213 77.3242 63.2616 72.8636C63.3102 68.4204 63.9768 64.5786 65.6431 61.3835L59.4916 58.1571ZM53.8955 55.0177C54.5412 59.3497 57.9433 62.5795 62.0431 63.2053L63.0915 56.3319C61.9147 56.1511 60.9496 55.2228 60.7656 53.992L53.8955 55.0177ZM57.006 46.3398C54.6731 48.4467 53.3921 51.6592 53.8955 55.0177L60.7621 53.9886C60.6198 53.0325 60.9774 52.1146 61.6543 51.5062L57.006 46.3398ZM55.659 48.4258C55.7389 48.9647 55.8639 49.4897 56.027 49.9973L62.6298 47.8522C62.5847 47.7096 62.5465 47.5567 62.5222 47.3967L55.659 48.4258ZM63.8379 37.356C58.5265 38.1522 54.8641 43.1065 55.659 48.4258L62.5257 47.3967C62.3 45.8774 63.3449 44.4589 64.862 44.2329L63.8379 37.356ZM66.4554 37.3178C65.6014 37.2135 64.7231 37.2239 63.8379 37.356L64.8655 44.2329C65.1258 44.1947 65.3758 44.1912 65.6153 44.2225L66.4554 37.3178ZM70.7601 32.1896C66.4901 32.8293 63.2963 36.1531 62.6125 40.186L69.4583 41.3507C69.6561 40.193 70.5761 39.2473 71.7876 39.0665L70.7601 32.1896ZM75.4779 32.652C74.0129 32.127 72.3986 31.9462 70.7601 32.1896L71.7876 39.0665C72.2632 38.997 72.718 39.0492 73.1311 39.1952L75.4779 32.652Z" fill="white"/>
</g>
<path d="M69.5798 194.18V194.896L70.281 195.032L70.4476 194.18C70.281 195.032 70.281 195.032 70.281 195.032H70.2845L70.2914 195.035L70.3227 195.042C70.347 195.046 70.3852 195.052 70.4372 195.063C70.5379 195.08 70.6872 195.108 70.8816 195.143C71.2739 195.209 71.8606 195.306 72.6347 195.421C74.1795 195.65 76.4811 195.956 79.5013 196.262C85.5418 196.874 94.4705 197.483 106.041 197.483C117.674 197.483 126.138 195.73 131.734 193.943C134.532 193.05 136.611 192.146 138.01 191.451C138.711 191.103 139.239 190.807 139.607 190.588C139.791 190.481 139.933 190.387 140.037 190.321C140.09 190.286 140.135 190.255 140.169 190.23L140.173 190.227C140.19 190.213 140.263 190.164 140.326 190.102C140.478 189.949 140.53 189.778 140.537 189.764C140.555 189.712 140.565 189.674 140.569 189.653C140.572 189.632 140.576 189.615 140.579 189.598C140.582 189.58 140.582 189.566 140.582 189.559C140.582 189.545 140.586 189.531 140.586 189.518C140.586 189.497 140.589 189.476 140.589 189.458C140.593 189.396 140.596 189.316 140.6 189.222C140.603 189.031 140.61 188.76 140.614 188.412C140.624 187.713 140.631 186.705 140.638 185.429C140.652 182.877 140.655 179.265 140.659 174.995C140.666 166.453 140.655 155.265 140.641 144.651C140.617 125.671 125.242 110.315 106.291 110.315H103.948C84.9655 110.315 69.5798 125.723 69.5798 144.734V194.18Z" fill="url(#paint0_linear)"/>
<path fill-rule="evenodd" clip-rule="evenodd" d="M68.7119 144.734C68.7119 125.243 84.4861 109.446 103.948 109.446H106.291C125.72 109.446 141.484 125.19 141.509 144.65C141.523 155.264 141.534 166.453 141.527 174.996C141.523 179.265 141.52 182.879 141.506 185.434C141.499 186.708 141.492 187.719 141.481 188.423C141.479 188.683 141.474 188.904 141.471 189.076C141.469 189.136 141.468 189.19 141.467 189.238L141.467 189.246L141.467 189.254C141.464 189.344 141.46 189.425 141.457 189.493C141.456 189.509 141.455 189.523 141.455 189.532C141.454 189.539 141.454 189.546 141.453 189.551C141.452 189.575 141.451 189.595 141.449 189.609C141.449 189.611 141.449 189.612 141.449 189.613C141.447 189.652 141.442 189.706 141.43 189.768C141.426 189.786 141.425 189.791 141.425 189.796C141.409 189.889 141.38 189.982 141.361 190.039L141.341 190.098L141.331 190.118C141.33 190.121 141.328 190.125 141.327 190.129C141.311 190.168 141.288 190.221 141.256 190.282C141.193 190.402 141.093 190.562 140.939 190.716C140.871 190.785 140.805 190.838 140.761 190.871C140.754 190.877 140.747 190.882 140.741 190.887L140.729 190.899L140.667 190.942C140.629 190.969 140.578 191.004 140.519 191.044L140.51 191.05L140.502 191.055C140.484 191.066 140.464 191.079 140.441 191.094C140.347 191.154 140.209 191.243 140.047 191.337C139.661 191.567 139.115 191.873 138.395 192.23C136.958 192.944 134.838 193.864 131.997 194.772C126.315 196.586 117.762 198.352 106.041 198.352C94.44 198.352 85.4822 197.742 79.4139 197.127C76.3802 196.82 74.0654 196.512 72.5076 196.281C71.8654 196.186 71.3507 196.102 70.9683 196.039L70.9663 196.049L70.3402 195.928C70.3224 195.925 70.3056 195.922 70.2897 195.919L70.2783 195.918L70.267 195.915C70.2443 195.911 70.2269 195.907 70.2143 195.905C70.2031 195.903 70.1986 195.902 70.1989 195.902L70.1881 195.901H69.6655L69.6269 195.79L68.7119 195.613V144.734ZM71.03 194.287C71.4193 194.352 71.9983 194.448 72.7617 194.561C74.2936 194.789 76.5821 195.093 79.5886 195.398C85.6012 196.007 94.5007 196.614 106.041 196.614C117.585 196.614 125.96 194.875 131.47 193.115C134.225 192.236 136.264 191.348 137.624 190.672L137.625 190.672C138.306 190.334 138.814 190.049 139.163 189.841L139.166 189.84L139.169 189.838C139.298 189.762 139.4 189.697 139.494 189.637C139.517 189.622 139.541 189.607 139.564 189.592C139.594 189.572 139.621 189.554 139.645 189.537C139.645 189.537 139.645 189.537 139.645 189.537C139.648 189.534 139.652 189.532 139.654 189.53C139.659 189.526 139.664 189.523 139.667 189.52L139.683 189.508C139.692 189.502 139.698 189.498 139.703 189.494C139.707 189.49 139.71 189.488 139.712 189.486C139.713 189.485 139.715 189.483 139.716 189.48C139.717 189.478 139.718 189.477 139.718 189.476C139.718 189.473 139.719 189.47 139.719 189.468C139.719 189.466 139.719 189.464 139.719 189.462C139.72 189.456 139.72 189.452 139.72 189.447C139.721 189.437 139.722 189.427 139.722 189.42L139.723 189.41C139.726 189.357 139.729 189.286 139.732 189.198C139.733 189.147 139.734 189.091 139.735 189.031C139.739 188.861 139.743 188.654 139.746 188.403L139.746 188.399C139.756 187.705 139.763 186.701 139.77 185.424C139.784 182.875 139.787 179.265 139.791 174.995C139.798 166.453 139.787 155.266 139.773 144.652C139.75 126.153 124.764 111.184 106.291 111.184H103.948C85.4447 111.184 70.4476 126.204 70.4476 144.734V194.162H70.4889L70.5709 194.203C70.5793 194.205 70.5876 194.207 70.5959 194.208C70.6536 194.218 70.7283 194.232 70.8138 194.247C70.8803 194.26 70.9533 194.273 71.03 194.287ZM70.0217 194.096L69.5959 194.013L69.4293 194.864L69.4291 194.866L69.4288 194.867C69.4283 194.877 69.4278 194.886 69.4275 194.896C69.4244 194.997 69.439 195.092 69.533 195.138C69.6424 195.192 69.8594 195.18 70.281 195.032M139.718 189.518C139.718 189.515 139.718 189.513 139.718 189.511L139.718 189.518ZM139.723 189.41C139.723 189.408 139.723 189.407 139.723 189.407L139.723 189.41ZM140.696 190.92L140.697 190.92C140.695 190.921 140.695 190.921 140.696 190.92Z" fill="#684A18"/>
<path d="M76.1825 195.021C72.3986 194.562 70.4442 194.183 70.4442 194.183V168.15L70.8017 166.544L78.0919 162.371C78.0919 162.371 74.6204 175.409 74.7939 182.71C74.8946 186.795 75.5889 191.59 76.1825 195.021Z" fill="#BB9B2C"/>
<path d="M119.937 195.668C117.563 196.009 114.966 196.28 112.144 196.443C112.873 193.902 113.769 190.675 114.376 186.183C115.036 181.302 115.022 175.388 115.011 170.107C115.001 165.031 114.99 160.536 115.581 158.102C116.785 153.134 118.511 149.442 120.274 147.595L119.937 195.668Z" fill="#BB9B2C"/>
<path d="M59.6617 141.866C63.3935 123.248 76.5019 111.886 83.5734 110.384L82.8826 116.302C82.8826 116.302 82.0737 129.75 82.8826 139.071C84.1809 154.01 73.9087 182.741 64.2649 184.525C54.621 186.309 40.7281 176.97 37.1351 129.019C37.1351 129.019 39.6068 129.868 45.4736 127.246C51.3405 124.625 52.677 122.282 52.677 122.282C54.6245 128.96 57.1483 135.573 59.6617 141.866Z" fill="url(#paint1_linear)"/>
<path d="M81.4106 119.907C85.1286 122.466 87.7114 123.964 91.1135 124.646C97.1886 125.863 108.877 125.804 117.671 121.691C118.851 122.633 120.094 123.398 121.35 124.166C127.116 127.705 133.205 131.443 135.202 153.85C136.288 166.043 135.431 182.863 134.816 191.875C138.118 190.561 139.715 189.486 139.715 189.486V144.734C139.715 126.203 124.714 111.184 106.215 111.184H103.948C95.2689 111.184 87.3608 114.487 81.4106 119.907Z" fill="#BB9B2C"/>
<path d="M60.3108 139.057C60.0713 139.975 59.8561 140.91 59.6651 141.866C57.1518 135.573 54.628 128.964 52.684 122.278C52.684 122.278 51.3474 124.621 45.4806 127.243C39.6137 129.864 37.142 129.016 37.142 129.016C37.5933 135.02 38.2043 140.416 38.9472 145.263C37.4614 127.01 49.8269 123.328 64.2163 155.936L60.3108 139.057Z" fill="#BB9B2C"/>
<path d="M77.4254 167.368C78.2585 164.875 78.866 162.472 79.1368 160.282L77.7482 149.678C77.0539 157.674 64.2093 204.958 46.5047 169.669C43.9427 164.565 42.0854 159.722 40.8392 155.307C46.6262 180.53 56.7421 185.916 64.2684 184.522C68.9757 183.652 73.8393 176.351 77.4254 167.368Z" fill="#BB9B2C"/>
<path d="M83.2609 111.782L82.8131 113.781C70.1907 121.169 63.3206 146.625 64.0254 152.411C63.0047 149.223 61.4842 144.532 60.0262 140.207C63.515 125.393 72.9228 115.446 79.9109 111.778H83.2609V111.782Z" fill="#BB9B2C"/>
<path d="M60.349 138.907C60.0956 139.87 59.8665 140.858 59.6616 141.862C59.2937 140.938 58.9222 140.006 58.5542 139.071C56.6866 134.311 54.8605 129.391 53.3227 124.416C53.1005 123.704 52.8887 122.987 52.6804 122.275C52.6804 122.275 52.3576 122.841 51.3335 123.728C50.2712 124.646 48.4591 125.908 45.4771 127.239C42.3284 128.647 40.1587 129.054 38.8222 129.131C37.6697 129.197 37.1385 129.012 37.1385 129.012C37.1906 129.732 37.2496 130.441 37.3086 131.144C41.1481 177.245 54.7703 186.277 64.2718 184.522C65.0702 184.487 73.3428 180.906 76.1791 158.773H78.0155C74.6794 182.561 67.5003 186.017 64.5183 186.566C59.0819 187.571 52.6075 185.363 47.126 176.696C41.714 168.139 37.2913 153.356 35.4826 129.204L35.2604 126.221L37.5586 127.01L37.5655 127.013C37.5968 127.02 37.6697 127.034 37.7842 127.048C38.0133 127.076 38.4126 127.097 39.0027 127.048C40.1796 126.947 42.1132 126.551 44.9216 125.296C47.7474 124.034 49.4138 122.869 50.3441 122.073C50.8093 121.677 51.2328 121.197 51.2328 121.197L53.1179 119.438L54.2635 121.576C55.7076 126.534 57.4781 131.467 59.3388 136.289C61.5987 128.856 65.5979 121.864 72.3673 115.259L73.9295 116.368C66.0631 123.255 61.6751 134.238 60.349 138.907Z" fill="#684A18"/>
<path d="M103.882 196.607C103.857 196.607 103.83 196.607 103.805 196.607C101.632 183.214 96.3763 144.887 101.872 115.259L105.864 113.52C98.3933 149 102.104 184.035 103.882 196.607Z" fill="#53461C"/>
<path d="M45.4114 126.17C50.2858 124.157 53.7425 121.324 53.1323 119.841C52.522 118.359 48.0758 118.789 43.2014 120.802C38.327 122.815 34.8703 125.648 35.4805 127.131C36.0908 128.613 40.537 128.183 45.4114 126.17Z" fill="#3F2D0F"/>
<path d="M31.9243 90.581C32.8964 89.0164 34.9793 88.5958 36.4824 89.6596L40.8218 92.733C42.2625 93.7552 43.3352 95.2119 43.8837 96.8912L46.4977 104.905C47.0427 106.577 46.1401 108.378 44.4738 108.938C42.8144 109.494 41.0162 108.618 40.4365 106.963L37.8294 99.5543C37.4579 98.4974 36.7601 97.59 35.8367 96.9607L32.8373 94.9129C31.421 93.9499 31.0183 92.0377 31.9243 90.581Z" fill="#995D55"/>
<path fill-rule="evenodd" clip-rule="evenodd" d="M35.9813 90.3693C34.8854 89.5938 33.3691 89.9009 32.6612 91.0402L32.661 91.0405C32.0008 92.102 32.2949 93.4935 33.3248 94.1938L33.3262 94.1948L36.325 96.2421C36.3251 96.2422 36.3252 96.2423 36.3254 96.2424C36.3254 96.2424 36.3253 96.2423 36.3254 96.2424C37.4014 96.9759 38.215 98.0339 38.6479 99.2654C38.6479 99.2656 38.6479 99.2653 38.6479 99.2654L41.2554 106.675C41.6773 107.88 42.9866 108.52 44.1981 108.114C45.4119 107.706 46.0699 106.394 45.6727 105.175C45.6727 105.175 45.6728 105.175 45.6727 105.175L43.0588 97.1614C42.5683 95.6598 41.6092 94.3571 40.3207 93.4427C40.3205 93.4425 40.3203 93.4424 40.3201 93.4423L35.9813 90.3693C35.9814 90.3693 35.9812 90.3692 35.9813 90.3693ZM31.1877 90.1214C32.4239 88.1321 35.073 87.5978 36.9833 88.9498L41.3235 92.0238C42.916 93.1537 44.1021 94.7643 44.7085 96.621L47.3227 104.635C48.0154 106.761 46.8684 109.05 44.7498 109.762L44.7493 109.762C42.6424 110.469 40.3556 109.357 39.6178 107.252C39.6177 107.251 39.6176 107.251 39.6175 107.251L37.0108 99.8432C36.7009 98.9614 36.1188 98.2043 35.3485 97.6793L32.3499 95.632C32.3496 95.6319 32.3494 95.6317 32.3492 95.6316C30.547 94.4057 30.036 91.9735 31.1875 90.1218" fill="#633C37"/>
<path d="M32.4381 111.876L31.6813 111.448L32.0493 110.795L32.5874 111.003C32.6673 110.979 32.7818 110.937 32.9346 110.868C33.3095 110.701 33.8163 110.429 34.4342 110.078C35.1806 109.654 36.0381 109.136 36.965 108.583C37.5725 108.218 38.2078 107.836 38.8604 107.45C40.4781 106.494 42.1688 105.538 43.6164 104.881C44.3384 104.554 45.0293 104.286 45.6368 104.137C46.2061 103.998 46.8761 103.914 47.4489 104.157C50.0039 105.253 51.823 106.998 52.2361 109.915C52.3785 110.934 52.132 112.196 51.83 113.416C51.6946 113.955 51.5418 114.515 51.3891 115.074C51.3648 115.168 51.337 115.259 51.3127 115.353C51.1322 116.01 50.9586 116.66 50.8093 117.299C50.6462 117.998 50.6601 118.617 50.6948 119.25C50.6982 119.316 50.7017 119.385 50.7052 119.455C50.7399 120.011 50.7781 120.661 50.6392 121.294C50.2955 122.893 48.9521 124.086 45.7305 125.383C42.3736 126.735 40.3983 127.257 38.8292 126.986C38.0134 126.847 37.3642 126.502 36.7428 126.075C36.3852 125.828 35.993 125.515 35.5729 125.185C35.316 124.983 35.0522 124.774 34.7849 124.569C33.7712 123.794 33.1776 123.13 32.6881 122.268C32.3722 121.708 32.0875 121.047 31.7508 120.251C31.6084 119.917 31.4557 119.556 31.2856 119.173C30.4108 117.181 30.5184 115.248 30.8274 113.84C30.9836 113.134 31.1919 112.55 31.362 112.137C31.4488 111.931 31.5251 111.768 31.5807 111.65C31.6084 111.591 31.6327 111.545 31.6501 111.514C31.6605 111.497 31.664 111.486 31.6709 111.476L31.6779 111.462L31.6813 111.459C31.6813 111.448 31.6848 111.448 32.4381 111.876ZM32.4902 111.027C32.4902 111.027 32.4971 111.027 32.511 111.024C32.4971 111.024 32.4902 111.027 32.4902 111.027Z" fill="#995D55"/>
<path d="M37.9439 111.778C36.8886 109.407 42.8943 106.615 42.8943 106.615L38.5515 108.364C35.2292 110.861 30.3587 111.664 32.0181 118.666C32.0181 118.666 34.0906 122.751 36.1283 122.8C36.1283 122.8 41.898 121.802 42.9012 119.201C42.0195 114.056 45.6264 112.015 45.6264 112.015C45.6264 112.015 38.9993 114.15 37.9439 111.778Z" fill="#AA7770"/>
<path fill-rule="evenodd" clip-rule="evenodd" d="M49.4959 106.544C48.3724 105.49 47.0739 104.954 46.2042 105.001C46.0392 105.01 45.7542 105.075 45.3482 105.231C44.9552 105.383 44.4966 105.601 44 105.875C43.0064 106.424 41.9054 107.17 40.9349 107.973C39.9532 108.786 39.1592 109.614 38.727 110.316C38.5104 110.668 38.4213 110.93 38.4035 111.102C38.3891 111.241 38.4194 111.3 38.4682 111.353C38.7328 111.641 39.2048 111.84 39.9319 111.896C40.6464 111.951 41.4818 111.856 42.3077 111.689C43.1261 111.523 43.8944 111.294 44.4612 111.105C44.7435 111.01 44.9732 110.927 45.131 110.867C45.2098 110.838 45.2705 110.814 45.3107 110.798C45.3308 110.79 45.3457 110.784 45.3552 110.781L45.3654 110.777L45.3673 110.776C45.3672 110.776 45.3671 110.776 45.6958 111.58C46.0246 112.385 46.0244 112.385 46.0242 112.385L46.0222 112.386L46.0177 112.387L46.0021 112.394C45.989 112.399 45.9703 112.407 45.9463 112.416C45.8983 112.435 45.8293 112.462 45.7416 112.495C45.5663 112.561 45.3159 112.652 45.0102 112.754C44.4009 112.957 43.5612 113.208 42.6521 113.393C41.7505 113.575 40.7389 113.701 39.7991 113.629C38.8724 113.558 37.883 113.283 37.1912 112.531L37.1902 112.53C36.761 112.062 36.6186 111.489 36.677 110.923C36.732 110.39 36.9615 109.871 37.2496 109.404C37.827 108.466 38.7875 107.496 39.8288 106.634C40.8812 105.762 42.0719 104.955 43.1622 104.353C43.7076 104.052 44.2392 103.796 44.7248 103.609C45.1974 103.427 45.6797 103.288 46.1109 103.265C47.6261 103.183 49.3652 104.039 50.683 105.276C52.0208 106.532 53.1005 108.343 53.1005 110.391C53.1005 112.227 52.7864 113.787 52.4718 114.889C52.3142 115.441 52.1559 115.881 52.035 116.187C51.9745 116.34 51.9233 116.46 51.8861 116.543C51.8675 116.585 51.8525 116.618 51.8415 116.642C51.836 116.653 51.8315 116.663 51.8281 116.67L51.8238 116.679L51.8223 116.682L51.8215 116.684C51.8214 116.684 51.8213 116.684 51.0419 116.302C50.2626 115.919 50.2625 115.919 50.2624 115.92L50.2626 115.919L50.2692 115.905C50.2756 115.891 50.2861 115.869 50.3001 115.837C50.328 115.774 50.3699 115.677 50.421 115.547C50.5234 115.288 50.6627 114.902 50.8029 114.411C51.0836 113.428 51.3648 112.032 51.3648 110.391C51.3648 108.962 50.5994 107.58 49.4959 106.544Z" fill="#633C37"/>
<path d="M27.8731 108.924C26.6234 109.932 26.429 111.761 27.4323 113.013L31.3412 117.877C32.3479 119.128 34.1739 119.323 35.4237 118.318C36.6734 117.31 36.8678 115.481 35.8645 114.23L31.9556 109.366C30.9489 108.114 29.1194 107.916 27.8731 108.924Z" fill="#995D55"/>
<path fill-rule="evenodd" clip-rule="evenodd" d="M27.3282 108.248C28.949 106.937 31.3249 107.196 32.6314 108.82L36.5413 113.685C37.8432 115.31 37.5919 117.685 35.9681 118.995L35.9669 118.996C34.3451 120.3 31.9734 120.048 30.6653 118.422L26.7554 113.557C25.4536 111.933 25.7048 109.558 27.3282 108.248ZM31.2797 109.911C30.5729 109.032 29.2902 108.895 28.4185 109.6L28.4175 109.601C27.542 110.307 27.4044 111.589 28.1087 112.468C28.1088 112.468 28.1089 112.468 28.109 112.469L32.017 117.331C32.0171 117.331 32.0171 117.331 32.0172 117.332C32.7225 118.208 34.0022 118.346 34.8798 117.641C35.7547 116.934 35.8921 115.653 35.1881 114.774C35.188 114.774 35.1878 114.774 35.1877 114.774L31.2797 109.911Z" fill="#633C37"/>
<path d="M31.7646 103.587C30.1921 104.366 29.5498 106.271 30.3274 107.846L33.5073 114.278C34.285 115.853 36.1873 116.496 37.7599 115.718C39.3325 114.939 39.9747 113.034 39.1971 111.459L36.0172 105.027C35.2396 103.455 33.3372 102.809 31.7646 103.587Z" fill="#995D55"/>
<path fill-rule="evenodd" clip-rule="evenodd" d="M31.38 102.808C33.3828 101.816 35.805 102.64 36.7949 104.641L39.9751 111.073C40.9649 113.078 40.1474 115.505 38.1446 116.497C36.1429 117.488 33.7197 116.669 32.7294 114.663L29.5495 108.232C28.5597 106.227 29.3772 103.8 31.38 102.808ZM35.2395 105.412C34.6741 104.27 33.2916 103.801 32.1493 104.366C31.0071 104.932 30.5401 106.315 31.1052 107.461C31.1052 107.461 31.1052 107.461 31.1052 107.461C31.1053 107.461 31.1054 107.461 31.1054 107.461L34.2853 113.893C34.8502 115.037 36.2318 115.505 37.3752 114.938C38.5176 114.373 38.9846 112.989 38.4192 111.844L35.2395 105.412C35.2395 105.412 35.2394 105.412 35.2395 105.412Z" fill="#633C37"/>
<path d="M35.7291 100.716C34.1392 101.355 33.372 103.163 34.0107 104.755L36.6144 111.236C37.2531 112.828 39.0583 113.597 40.6482 112.957C42.2382 112.317 43.0054 110.509 42.3666 108.917L39.763 102.436C39.1243 100.844 37.3156 100.076 35.7291 100.716Z" fill="#995D55"/>
<path fill-rule="evenodd" clip-rule="evenodd" d="M40.5682 102.112C40.5682 102.112 40.5683 102.112 40.5683 102.112L43.172 108.593C43.9888 110.629 43.0079 112.944 40.9718 113.764C38.9386 114.582 36.6274 113.599 35.8092 111.56C35.8092 111.56 35.8091 111.56 35.8091 111.56L33.2054 105.079C32.3886 103.043 33.3693 100.729 35.405 99.9093M40.5682 102.112C39.75 100.073 37.435 99.0909 35.405 99.9093L40.5682 102.112ZM38.9577 102.761C38.4982 101.615 37.1961 101.061 36.0533 101.522L36.0527 101.522C34.909 101.982 34.3555 103.283 34.8159 104.431C34.8159 104.431 34.8159 104.431 34.8159 104.431C34.8159 104.431 34.816 104.431 34.8161 104.431L37.4197 110.912C37.8792 112.058 39.1781 112.612 40.3247 112.15C41.4683 111.69 42.0218 110.39 41.5615 109.242M38.9577 102.761L41.5613 109.241L38.9577 102.761Z" fill="#633C37"/>
<path fill-rule="evenodd" clip-rule="evenodd" d="M42.9672 119.625C42.9672 119.625 42.6895 114.403 45.9527 112.241L45.4424 110.909C41.8806 112.762 42.9672 119.625 42.9672 119.625Z" fill="#633C37"/>
<path d="M88.5029 118.76C111.196 116.02 127.55 94.7634 125.28 75.8848C123.013 57.0515 105.93 43.6245 87.1247 45.8948C71.562 47.7722 64.0774 53.5192 60.9149 61.3765C57.8287 69.0427 58.9674 78.5202 60.0609 87.584L60.0782 87.73C61.1891 96.9572 63.4942 105.27 67.9377 111.007C72.4368 116.816 79.057 119.9 88.5029 118.76Z" fill="#995D55"/>
<path fill-rule="evenodd" clip-rule="evenodd" d="M87.0209 45.0318C106.302 42.7041 123.817 56.4709 126.142 75.7808C128.475 95.1794 111.731 116.831 88.6068 119.623C78.8804 120.797 71.9515 117.608 67.2519 111.539C62.6628 105.615 60.3335 97.1111 59.2166 87.8341L59.1863 87.5802C58.1041 78.6112 56.9365 68.9345 60.1099 61.0516C63.4334 52.7943 71.2765 46.9312 87.0209 45.0318ZM124.418 75.9889C122.209 57.6322 105.558 44.5449 87.2286 46.7577C71.8475 48.6132 64.7214 54.2441 61.7198 61.7015C58.7337 69.1193 59.8212 78.3515 60.9225 87.4797L60.9227 87.4813L60.9399 87.626C60.9399 87.6262 60.9399 87.6264 60.94 87.6266C62.0449 96.8037 64.3257 104.925 68.6235 110.474C72.9221 116.025 79.2335 119.003 88.3991 117.897C110.661 115.209 126.626 94.3473 124.418 75.9889Z" fill="#633C37"/>
<path fill-rule="evenodd" clip-rule="evenodd" d="M98.1085 115.471C111.682 103.094 112.605 88.0395 107.152 73.4269C99.9553 54.1555 63.7719 56.7283 63.7719 56.7283C63.7719 56.7283 105.208 38.7363 116.181 69.679C119.548 72.0293 122.767 74.2717 124.291 76.0796C124.291 76.0796 124.19 79.6676 124.218 84.4063C122.121 97.3918 112.078 110.071 98.1085 115.471Z" fill="#95564E"/>
<path fill-rule="evenodd" clip-rule="evenodd" d="M83.7816 49.1525C75.9256 54.7952 70.0657 53.9955 64.7092 66.2857C59.3527 78.5793 61.4981 92.959 69.2916 106.869C71.5481 110.899 73.3185 113.527 76.1929 116.472C66.7609 112.39 62.5708 101.157 60.9426 87.6222C58.7382 69.2965 56.4783 50.5293 87.0796 46.7709C86.0798 47.501 84.9654 48.3007 83.7816 49.1525Z" fill="#AA7770"/>
<path fill-rule="evenodd" clip-rule="evenodd" d="M84.8925 47.0769C85.6493 46.9587 86.4304 46.8544 87.2323 46.7571C105.562 44.5459 122.211 57.6322 124.423 75.9892C126.023 89.2841 118.091 103.89 105.138 111.959C131.865 86.0682 101.538 48.252 83.0422 51.023L84.8925 47.0769Z" fill="#814D46"/>
<path d="M124.037 86.3567L124.495 86.2872L124.693 85.8665C125.391 84.382 126.099 83.2381 126.748 82.1847L126.773 82.143C127.45 81.0478 128.095 80.0048 128.526 78.8227C128.929 77.7102 129.137 76.5003 129.067 74.9949C130.852 73.4512 131.831 71.0523 131.456 68.5421C131.248 67.1479 130.65 65.9102 129.789 64.9194C130.939 63.4348 131.504 61.5018 131.206 59.4957C130.817 56.8951 129.074 54.8369 126.801 53.926C126.797 53.8947 126.79 53.86 126.787 53.8287C126.436 51.4715 124.971 49.5593 123.01 48.5441C123.076 47.9391 123.069 47.3203 122.975 46.691C122.395 42.7971 118.771 40.1131 114.883 40.6937C114.602 40.7354 114.324 40.7945 114.053 40.8675C114.053 40.5094 114.029 40.1478 113.973 39.7828C113.394 35.8889 109.769 33.2048 105.881 33.7854C105.649 33.8202 105.42 33.8654 105.194 33.921C103.649 32.3009 101.368 31.4317 98.9868 31.7898C98.3863 31.8802 97.8135 32.0436 97.2789 32.2696C95.7445 30.3887 93.2866 29.3422 90.7108 29.7281C88.8119 30.0132 87.2011 31.0215 86.118 32.433C84.5905 30.4721 82.0806 29.3665 79.4492 29.7629C76.5714 30.194 74.36 32.2905 73.6345 34.9258C72.836 34.7589 71.9925 34.7311 71.1419 34.8597C68.2953 35.2874 66.0978 37.3456 65.3515 39.9462C64.98 39.9427 64.6016 39.967 64.2198 40.0261C60.3317 40.6067 57.6517 44.2364 58.2314 48.1303C58.2627 48.3424 58.3043 48.551 58.3529 48.7527C56.8949 50.2894 56.1312 52.4623 56.4679 54.7222C57.0511 58.6161 60.6719 61.3001 64.56 60.7195C66.4797 60.4309 68.1044 59.4018 69.1875 57.9659C70.4268 58.5605 71.8501 58.8038 73.3082 58.5848C75.2279 58.2962 76.8526 57.2671 77.9357 55.8312C79.175 56.4258 80.5983 56.6691 82.0563 56.4501C83.0943 56.2936 84.0455 55.9216 84.8752 55.3827C86.3645 56.5718 88.3293 57.1593 90.3602 56.8569C91.2662 56.7213 92.1098 56.4188 92.8596 55.9877C93.4151 56.5022 94.0538 56.9264 94.7447 57.2428C96.0118 60.1006 99.0632 61.8842 102.306 61.3975C102.524 61.3662 102.743 61.321 102.955 61.2688C103.968 63.1149 105.76 64.4291 107.829 64.8324C108.186 65.8894 108.78 66.8211 109.54 67.579C109.297 68.4934 109.231 69.4704 109.381 70.4647C109.679 72.4708 110.786 74.1535 112.317 75.2347C111.783 76.4342 111.575 77.7936 111.783 79.1843C112.363 83.0782 115.987 85.7622 119.875 85.1816C120.097 85.1468 120.316 85.1051 120.531 85.053C121.479 85.95 122.666 86.5619 124.037 86.3567Z" fill="#171717"/>
<path d="M79.5812 30.6216C82.5111 30.1835 85.2744 31.8593 86.3194 34.5051C81.0149 29.5125 72.5791 35.2074 76.4082 41.5385C75.3216 40.5963 74.551 39.2716 74.3218 37.7349C73.815 34.3208 76.1687 31.1327 79.5812 30.6216Z" fill="#3A3A3A"/>
<path d="M105.617 50.3936C99.57 46.2564 92.9811 55.6365 100.039 60.49C97.5253 59.9893 95.4806 57.959 95.0779 55.2749C94.5676 51.8539 96.9213 48.6692 100.337 48.1581C101.948 47.9182 103.507 48.3146 104.76 49.1629C105.065 49.5001 105.35 49.9069 105.617 50.3936Z" fill="#3A3A3A"/>
<path d="M63.4629 59.9303C56.2283 54.6839 59.0611 48.8744 64.2406 47.4489C63.7025 47.3863 63.147 47.3933 62.5881 47.4767C59.1756 47.9878 56.8185 51.1759 57.3288 54.5935C57.7905 57.6878 60.4358 59.9129 63.4629 59.9303Z" fill="#3A3A3A"/>
<path d="M71.3364 45.342C73.5373 45.0118 75.641 45.874 76.9949 47.4455C72.8013 45.8462 65.8375 47.4524 67.7746 55.8939C66.8928 54.9864 66.2784 53.8044 66.077 52.4554C65.5702 49.0413 67.9239 45.8531 71.3364 45.342Z" fill="#3A3A3A"/>
<path d="M122.063 82.5612C122.617 78.3134 120.775 74.5698 117.948 74.1998C115.121 73.8298 112.38 76.9733 111.826 81.2212C111.271 85.469 113.114 89.2125 115.941 89.5826C118.768 89.9526 121.509 86.809 122.063 82.5612Z" fill="#95564E"/>
<path d="M114.706 76.0101C113.855 76.8375 113.005 77.8145 112.699 78.5654C113.053 77.6963 113.109 76.6289 113.88 75.5581C114.702 74.4177 116.587 73.4547 118.254 73.8162C120.246 74.2474 121.538 75.7632 122.208 77.5746C122.874 79.379 122.961 81.5554 122.517 83.5093C122.079 85.4354 121.225 87.3128 120.059 88.6201C118.889 89.9308 117.316 90.7478 115.535 90.2576C114.192 89.8891 113.987 88.1785 113.987 88.1785C114.616 88.6305 114.876 88.7522 115.876 89.0269C117.021 89.3398 118.125 88.8704 119.108 87.7683C120.094 86.6627 120.871 85.0008 121.274 83.2242C121.67 81.4789 121.586 79.5598 121.014 78.0126C120.444 76.469 119.427 75.3703 117.986 75.0609C116.903 74.828 115.556 75.1826 114.706 76.0101Z" fill="#633C37"/>
<path d="M77.9565 80.2065C77.9565 84.1699 74.1205 82.0595 70.1873 82.0595C66.2541 82.0595 63.2825 82.508 63.2825 82.508C65.2265 80.2065 62.9596 70.948 73.4227 70.948C77.3594 70.9445 77.9565 76.243 77.9565 80.2065Z" fill="#95564E"/>
<path d="M82.4903 79.9492C82.4903 83.8014 87.458 81.7502 92.5542 81.7502C97.6503 81.7502 101.646 83.1582 101.646 83.1582C98.2474 78.2943 102.142 70.8368 88.5342 70.8368C83.0423 70.8333 82.4903 76.0936 82.4903 79.9492Z" fill="#95564E"/>
<path d="M77.6336 79.5007C77.6336 83.0226 74.1448 81.1486 70.5691 81.1486C66.9935 81.1486 64.6815 83.026 64.6815 79.5007C64.6815 75.1617 69.9338 71.2713 73.5095 71.2713C77.0886 71.2713 77.6336 75.9788 77.6336 79.5007Z" fill="white"/>
<path d="M82.8131 79.5007C82.8131 83.0226 87.3469 81.1486 91.9952 81.1486C96.6436 81.1486 99.6465 83.026 99.6465 79.5007C99.6465 73.6807 92.818 71.2713 88.1696 71.2713C83.5213 71.2713 82.8131 75.9788 82.8131 79.5007Z" fill="white"/>
<path d="M75.3529 81.6424C74.7905 81.6215 74.1517 81.5276 73.4679 81.4268C72.5583 81.2912 71.5689 81.1487 70.5692 81.1487C70.0866 81.1487 69.6284 81.1834 69.1979 81.2321C68.5071 80.3873 68.087 79.2712 68.087 78.0509C68.087 75.4086 70.045 73.2704 72.4646 73.2704C74.8807 73.2704 76.8421 75.4121 76.8421 78.0509C76.8421 79.4798 76.2659 80.7662 75.3529 81.6424Z" fill="#373737"/>
<path d="M73.7525 81.4684C73.6588 81.4545 73.5616 81.4406 73.4678 81.4267C72.8187 81.3329 72.1313 81.2286 71.4266 81.1799C70.6177 80.6201 70.0762 79.6084 70.0762 78.4472C70.0762 76.688 71.3224 75.259 72.8603 75.259C74.3982 75.259 75.6445 76.6845 75.6445 78.4472C75.6479 79.8518 74.8564 81.0443 73.7525 81.4684Z" fill="black"/>
<path d="M74.4537 77.4807C73.8462 76.4308 72.961 75.3217 73.3081 75.1201C73.6553 74.9219 74.8912 75.7806 75.4952 76.8306C76.1027 77.884 75.8423 79.1357 75.4952 79.3338C75.148 79.5355 75.0578 78.5342 74.4537 77.4807Z" fill="white"/>
<path d="M93.8733 81.2391C94.5676 80.3942 94.9912 79.2747 94.9912 78.0474C94.9912 75.4051 93.0332 73.267 90.6136 73.267C88.194 73.267 86.236 75.4086 86.236 78.0474C86.236 79.4034 86.7533 80.6272 87.583 81.4963C87.7947 81.472 88.01 81.4477 88.2287 81.4233C89.4125 81.2877 90.7004 81.1452 91.9952 81.1452C92.6548 81.1452 93.2832 81.1834 93.8733 81.2391Z" fill="#373737"/>
<path d="M92.4847 81.1521C93.2727 80.5888 93.7969 79.5875 93.7969 78.4472C93.7969 76.688 92.5507 75.259 91.0128 75.259C89.4749 75.259 88.2286 76.6845 88.2286 78.4472C88.2286 79.671 88.8292 80.7349 89.7144 81.2668C90.4573 81.1973 91.2246 81.1451 91.9952 81.1451C92.1619 81.1451 92.325 81.1486 92.4847 81.1521Z" fill="black"/>
<path d="M92.5819 77.3173C92.1376 76.309 91.4294 75.4468 91.7939 75.2869C92.1584 75.1269 93.2033 75.6589 93.6442 76.6671C94.0886 77.6754 94.0087 79.1738 93.6442 79.3337C93.2797 79.4937 93.0228 78.3255 92.5819 77.3173Z" fill="white"/>
<path d="M66.754 81.6528C65.4417 81.8058 64.6884 81.5555 64.6884 79.5424C64.6884 78.2769 65.1328 77.0531 65.8548 75.9475C65.3237 77.9084 65.282 80.0257 66.754 81.6528Z" fill="#C4C4C4"/>
<path d="M96.4666 73.7502C98.0496 75.7702 99.2716 78.7358 97.581 81.6771C98.8827 81.7015 99.6152 81.2808 99.6152 79.5285C99.6118 76.9766 98.3134 75.0783 96.4666 73.7502Z" fill="#C4C4C4"/>
<path d="M86.4929 71.5147C83.3443 72.523 82.8131 76.4551 82.8131 79.5007C82.8131 81.0026 83.6393 81.5241 84.9481 81.625C81.9904 78.9653 83.2505 73.8267 86.4929 71.5147Z" fill="#C4C4C4"/>
<path d="M77.0435 83.8083C77.0435 84.528 74.2906 83.8083 70.892 83.8083C67.4934 83.8083 64.7405 84.528 64.7405 83.8083C64.7405 83.0886 67.4934 82.508 70.892 82.508C74.2871 82.5045 77.0435 83.0886 77.0435 83.8083Z" fill="#A46F68"/>
<path d="M98.7334 83.857C98.7334 84.6045 94.8141 84.4341 90.433 84.4341C86.052 84.4341 82.8687 84.601 82.8687 83.857C82.8687 83.1095 86.42 82.508 90.801 82.508C95.182 82.5045 98.7334 83.1095 98.7334 83.857Z" fill="#A46F68"/>
<path d="M84.6461 63.8938C84.3857 64.0989 84.653 64.8811 85.2466 65.646C85.8403 66.4109 86.5346 66.8663 86.7949 66.6612C87.0553 66.4561 86.3193 66.0389 85.7257 65.274C85.1321 64.5126 84.9064 63.6921 84.6461 63.8938Z" fill="#AA7770"/>
<path d="M103.805 98.5043C104.607 98.5078 105.267 96.7451 105.277 94.5652C105.288 92.3853 104.642 90.6191 103.84 90.6157C103.038 90.6122 103.357 92.3957 103.347 94.5756C103.337 96.752 103.003 98.5008 103.805 98.5043Z" fill="#95564E"/>
<path d="M97.2962 93.1884C97.2962 93.1884 94.3142 103.883 87.7392 105.538C81.1642 107.193 74.9606 103.111 74.9606 103.111C74.9606 103.111 82.0945 100.507 86.2152 99.4708C90.3393 98.4348 97.2962 93.1884 97.2962 93.1884Z" fill="white"/>
<path d="M90.4886 104.231C89.6555 104.829 88.739 105.287 87.7392 105.541C81.1642 107.196 74.9606 103.115 74.9606 103.115C74.9606 103.115 82.0945 100.51 86.2152 99.4744C90.0304 98.5148 96.2826 93.943 97.1852 93.272C97.2164 93.2685 97.2476 93.2615 97.2754 93.2581C97.2581 93.3102 97.2338 93.3971 97.199 93.5119C86.854 101.341 78.1752 102.447 78.1752 102.447C79.6714 106.042 90.5615 101.609 93.2311 99.6378C86.0312 105.938 80.7649 104.231 80.7649 104.231C81.8203 106.609 86.7845 105.472 90.4886 104.231Z" fill="#E1E1E1"/>
<path d="M93.7136 99.2032C93.6164 99.3249 93.4498 99.4709 93.2311 99.6343C93.3908 99.4952 93.5504 99.3527 93.7136 99.2032Z" fill="#E1E1E1"/>
<path fill-rule="evenodd" clip-rule="evenodd" d="M118.715 196.614V151.847H120.451V196.614H118.715Z" fill="#684A18"/>
<path d="M65.046 157.88C65.046 157.88 62.6576 149.167 58.5612 139.084L59.7554 138.059C65.3897 154.121 65.046 157.88 65.046 157.88Z" fill="#684A18"/>
<path d="M92.8492 69.7138C82.2611 66.9324 82.0875 60.3267 88.6834 64.3249C88.6834 64.3249 84.344 61.1959 83.4761 63.2819C82.9554 64.5335 83.9969 68.8446 92.8492 69.7138Z" fill="#814D46"/>
<path d="M75.4397 65.5625C75.6758 65.7399 75.4779 66.3726 74.9953 66.9741C74.5128 67.5756 73.9296 67.9198 73.6935 67.7425C73.4574 67.5651 74.0684 67.3183 74.5475 66.7168C75.0335 66.1119 75.2036 65.3852 75.4397 65.5625Z" fill="#AA7770"/>
<path d="M68.5487 70.4091C77.2275 68.3231 77.4566 62.9515 71.9959 66.1292C71.9959 66.1292 75.4674 63.7129 76.186 65.3678C76.4742 66.1953 77.5746 69.5399 68.5487 70.4091Z" fill="#814D46"/>
<path d="M96.3207 133.685C96.3207 134.836 95.3869 135.771 94.2378 135.771C93.0888 135.771 92.155 134.836 92.155 133.685C92.155 132.534 93.0888 131.599 94.2378 131.599C95.3869 131.599 96.3207 132.534 96.3207 133.685Z" fill="#78631B"/>
<path d="M96.3207 152.459C96.3207 153.61 95.3869 154.545 94.2378 154.545C93.0888 154.545 92.155 153.61 92.155 152.459C92.155 151.309 93.0888 150.373 94.2378 150.373C95.3869 150.373 96.3207 151.309 96.3207 152.459Z" fill="#78631B"/>
<path d="M97.0151 171.234C97.0151 172.384 96.0812 173.32 94.9322 173.32C93.7831 173.32 92.8492 172.384 92.8492 171.234C92.8492 170.083 93.7831 169.148 94.9322 169.148C96.0812 169.148 97.0151 170.083 97.0151 171.234Z" fill="#78631B"/>
<path d="M98.4037 188.965C98.4037 190.116 97.4698 191.051 96.3208 191.051C95.1717 191.051 94.2379 190.116 94.2379 188.965C94.2379 187.814 95.1717 186.879 96.3208 186.879C97.4698 186.879 98.4037 187.814 98.4037 188.965Z" fill="#78631B"/>
</g>
<defs>
<linearGradient id="paint0_linear" x1="105.119" y1="111.183" x2="105.119" y2="196.614" gradientUnits="userSpaceOnUse">
<stop offset="0.4271" stop-color="#D0B03E"/>
<stop offset="1" stop-color="#E8AF59"/>
</linearGradient>
<linearGradient id="paint1_linear" x1="58.5612" y1="115.703" x2="72.8174" y2="182.706" gradientUnits="userSpaceOnUse">
<stop offset="0.5104" stop-color="#D0B03E"/>
<stop offset="1" stop-color="#E7AF58"/>
</linearGradient>
<clipPath id="clip0">
<rect x="24.1135" y="26.9503" width="119.149" height="173.05" fill="white"/>
</clipPath>
</defs>
</svg>
